<svg width="64" height="64" viewBox="0 0 64 64" fill="none" xmlns="http://www.w3.org/2000/svg">
<mask id="path-1-inside-1_13_76" fill="white">
<path d="M0 16C0 7.16344 7.16344 0 16 0H48C56.8366 0 64 7.16344 64 16V48C64 56.8366 56.8366 64 48 64H16C7.16344 64 0 56.8366 0 48V16Z"/>
</mask>
<path d="M0 16C0 7.16344 7.16344 0 16 0H48C56.8366 0 64 7.16344 64 16V48C64 56.8366 56.8366 64 48 64H16C7.16344 64 0 56.8366 0 48V16Z" fill="white"/>
<path d="M16 0V1H48V0V-1H16V0ZM64 16H63V48H64H65V16H64ZM48 64V63H16V64V65H48V64ZM0 48H1V16H0H-1V48H0ZM16 64V63C7.71573 63 1 56.2843 1 48H0H-1C-1 57.3888 6.61116 65 16 65V64ZM64 48H63C63 56.2843 56.2843 63 48 63V64V65C57.3888 65 65 57.3888 65 48H64ZM48 0V1C56.2843 1 63 7.71573 63 16H64H65C65 6.61116 57.3888 -1 48 -1V0ZM16 0V-1C6.61116 -1 -1 6.61116 -1 16H0H1C1 7.71573 7.71573 1 16 1V0Z" fill="#BFE7FF" mask="url(#path-1-inside-1_13_76)"/>
<g opacity="0.8" style="mix-blend-mode:multiply">
<rect x="10" y="16" width="32" height="32" rx="16" fill="#8FD3FF"/>
</g>
<g opacity="0.8" style="mix-blend-mode:multiply">
<rect x="22" y="16" width="32" height="32" rx="16" fill="#CDBDFF"/>
</g>
</svg>
